<svg xmlns="http://www.w3.org/2000/svg" viewBox="0 0 1024 1024" role="img" aria-label="必火次元头像 v2">
  <defs>
    <linearGradient id="bg" x1="89" y1="75" x2="926" y2="929" gradientUnits="userSpaceOnUse">
      <stop offset="0" stop-color="#00E5FF"/>
      <stop offset=".34" stop-color="#785CFF"/>
      <stop offset=".7" stop-color="#FF3BA7"/>
      <stop offset="1" stop-color="#FFE84D"/>
    </linearGradient>
    <linearGradient id="face" x1="307" y1="295" x2="733" y2="776" gradientUnits="userSpaceOnUse">
      <stop offset="0" stop-color="#FFF9FF"/>
      <stop offset="1" stop-color="#F5EAFF"/>
    </linearGradient>
    <linearGradient id="hair" x1="248" y1="237" x2="756" y2="514" gradientUnits="userSpaceOnUse">
      <stop offset="0" stop-color="#3CF4FF"/>
      <stop offset=".44" stop-color="#A77CFF"/>
      <stop offset="1" stop-color="#FF5DB7"/>
    </linearGradient>
    <linearGradient id="cube" x1="384" y1="116" x2="637" y2="357" gradientUnits="userSpaceOnUse">
      <stop offset="0" stop-color="#FFF56B"/>
      <stop offset=".55" stop-color="#40F2C3"/>
      <stop offset="1" stop-color="#18B9FF"/>
    </linearGradient>
    <filter id="shadow" x="-18%" y="-18%" width="136%" height="140%" color-interpolation-filters="sRGB">
      <feDropShadow dx="0" dy="28" stdDeviation="34" flood-color="#190B45" flood-opacity=".32"/>
    </filter>
  </defs>

  <rect width="1024" height="1024" rx="238" fill="url(#bg)"/>
  <path d="M0 267C170 204 310 215 467 300c184 100 342 104 557 2v314c-176 75-344 74-527-28C320 490 163 491 0 568Z" fill="#fff" opacity=".13"/>
  <g opacity=".22" fill="#fff">
    <circle cx="121" cy="165" r="10"/><circle cx="171" cy="165" r="10"/><circle cx="221" cy="165" r="10"/>
    <circle cx="121" cy="215" r="10"/><circle cx="171" cy="215" r="10"/><circle cx="221" cy="215" r="10"/>
    <circle cx="121" cy="265" r="10"/><circle cx="171" cy="265" r="10"/><circle cx="221" cy="265" r="10"/>
  </g>
  <path d="M775 163h82M816 122v82" stroke="#42FFD2" stroke-width="30" stroke-linecap="round"/>
  <path d="M135 748h92M181 702v92" stroke="#FFF56B" stroke-width="34" stroke-linecap="round"/>
  <circle cx="833" cy="790" r="50" fill="#FFF56B"/>
  <circle cx="182" cy="836" r="36" fill="#42FFD2"/>

  <g filter="url(#shadow)">
    <path d="M512 91 666 180v178L512 447 358 358V180L512 91Z" fill="#141A3F"/>
    <path d="M512 127 635 198v142L512 411 389 340V198L512 127Z" fill="url(#cube)"/>
    <path d="M512 127v284M389 198l246 142M635 198 389 340" fill="none" stroke="#fff" stroke-width="10" stroke-linecap="round" opacity=".38"/>
  </g>

  <g filter="url(#shadow)">
    <path d="M264 421c-87 12-146 74-146 157 0 79 58 133 134 133 40 0 73-14 101-39Z" fill="#1A1D49"/>
    <path d="M760 421c87 12 146 74 146 157 0 79-58 133-134 133-40 0-73-14-101-39Z" fill="#1A1D49"/>
    <path d="M258 442c13-126 109-205 254-205s241 79 254 205l-78 80H336Z" fill="url(#hair)"/>
    <path d="M288 442c44-95 119-145 224-145 106 0 181 50 224 145-62-36-134-55-224-55s-162 19-224 55Z" fill="#fff" opacity=".18"/>
    <rect x="256" y="368" width="512" height="408" rx="148" fill="url(#face)"/>
    <path d="M262 493c73-42 149-64 228-66-33 52-76 84-129 96-37 9-72 0-99-30Z" fill="#8C68FF"/>
    <path d="M762 493c-73-42-149-64-228-66 33 52 76 84 129 96 37 9 72 0 99-30Z" fill="#FF5DB7"/>
    <rect x="333" y="506" width="118" height="134" rx="48" fill="#171C46"/>
    <rect x="573" y="506" width="118" height="134" rx="48" fill="#171C46"/>
    <circle cx="416" cy="542" r="22" fill="#65F4FF"/>
    <circle cx="656" cy="542" r="22" fill="#65F4FF"/>
    <circle cx="376" cy="681" r="23" fill="#FF78B9" opacity=".62"/>
    <circle cx="648" cy="681" r="23" fill="#FF78B9" opacity=".62"/>
    <path d="M444 686c42 36 94 36 136 0" fill="none" stroke="#FF3B96" stroke-width="28" stroke-linecap="round"/>
  </g>

  <g filter="url(#shadow)">
    <rect x="646" y="704" width="196" height="104" rx="42" fill="#fff"/>
    <text x="744" y="772" text-anchor="middle"
          font-family="Arial Black, Microsoft YaHei UI, Microsoft YaHei, sans-serif"
          font-size="54" font-weight="900" fill="#FF3B96">POP</text>
  </g>
</svg>
